<svg width="227" height="77" viewBox="0 0 227 77" fill="none" xmlns="http://www.w3.org/2000/svg">
<path d="M143.588 0.565685C147.145 -0.500516 150.99 -0.0466626 154.213 1.81861C170.651 11.2648 160.51 34.2949 153.384 46.3098C151.485 49.8458 148.089 52.0498 144.866 54.6301C146.592 60.6289 150.691 72.3807 145.315 77.0003L142.379 76.6829C134.794 68.7392 135.715 42.6263 132.215 28.7473C132.192 28.4181 132.181 28.0884 132.158 27.7581L132.112 26.1106C131.755 17.011 133.159 3.76427 143.588 0.565685ZM148.227 7.72096C140.469 12.9081 141.54 21.6689 141.16 30.1672C142.322 34.5725 142.46 36.7362 145.58 40.0315L147.779 39.97C152.613 34.0437 153.292 26.1402 154.512 18.6643C154.754 13.3473 153.96 8.81016 148.227 7.72096Z" fill="#221104"/>
<path d="M97.0833 1.54534C102.413 1.36579 107.581 3.42705 111.323 7.22893C122.132 18.3918 117.067 33.3544 106.603 42.599C105.555 43.031 96.9917 46.7093 96.8645 47.0434C94.3435 53.6294 99.4546 62.0834 96.9221 68.9067L94.8616 69.5326C93.6299 68.7083 90.4869 66.5991 90.2219 65.0424C87.6549 49.6608 86.0549 34.2005 83.5569 18.728C82.9353 8.9088 85.5145 1.82052 97.0833 1.54534ZM98.6145 9.56096C90.476 12.5811 92.617 28.0834 93.8372 35.2475C109.791 40.9005 108.744 23.0476 106.292 12.8715C102.828 10.4917 102.643 10.2045 98.6145 9.56096Z" fill="#221104"/>
<path d="M31.6899 55.2157C34.8198 44.1074 40.1485 2.52767 56.9662 7.1102C60.8684 10.0911 61.4327 12.3294 63.309 16.7518C64.9321 23.4392 69.5132 41.5537 68.8686 47.9901C68.0509 56.0102 52.074 45.0392 43.2104 51.7528C39.5152 54.5438 39.5958 56.3573 37.9555 62.1903C34.6299 65.443 36.278 64.5268 31.2455 65.16C30.899 62.4197 30.9451 57.857 31.6899 55.2157ZM53.2221 20.1991C47.7596 15.4197 45.825 29.5884 45.5404 37.2704H59.1967C59.4812 33.5716 58.6848 24.9789 53.2221 20.1991Z" fill="#221104"/>
<path d="M199.568 30.2789C199.464 20.5725 196.253 -1.67837 211.712 2.89041C216.938 4.43559 218.953 4.78561 222.337 9.19665C219.862 12.7533 214.843 11.7252 208.915 15.8184L208.673 17.7965C212.91 22.7591 218.389 21.9508 224.478 21.9831C226.378 24.2479 226.309 24.0475 226.861 26.9456C221.071 32.8443 212.23 26.7637 210.043 35.1759C214.348 40.1845 220.104 37.3187 224.87 42.1891C220.012 54.4596 201.824 48.113 199.568 30.2789Z" fill="#221104"/>
<path d="M0.127982 40.9467C-0.483268 34.1845 1.02353 15.2761 6.1967 10.8478C11.9017 5.96469 18.2467 4.36997 23.4602 10.3722C21.8003 17.3786 11.3089 11.6952 8.68774 28.1292C15.3482 34.7164 21.2189 31.1667 23.7698 37.4706C21.0382 40.8017 13.7032 40.1534 11.6979 43.6456C8.7545 48.7717 15.0777 55.3405 11.2375 61.1677L9.02154 61.489C4.46998 57.1401 4.65652 47.9404 0.127982 40.9467Z" fill="#221104"/>
<path d="M177.133 20.3861C176.05 13.5018 175.107 9.52025 178.399 3.09425L180.229 2.58995C187.516 7.4224 186.687 23.3314 186.825 31.3302C187.101 37.1839 187.792 39.0976 185.098 44.5368L181.956 44.8845L182.508 45.5478L181.438 44.8696C175.866 35.3509 176.937 31.1655 177.133 20.3861Z" fill="#221104"/>
</svg>
